<svg aria-hidden="true" style="position: absolute; width: 0; height: 0; overflow: hidden;" version="1.1" xmlns="http://www.w3.org/2000/svg" xmlns:xlink="http://www.w3.org/1999/xlink">
<defs>
<symbol id="icon-app-development" viewBox="0 0 32 32">
<path fill="#000" style="fill: var(--color1, #000)" d="M5.581 1.050c-0.456 0.163-0.85 0.506-1.062 0.938l-0.175 0.356-0.019 10.819c-0.012 10.513-0.012 10.825 0.106 10.969 0.163 0.2 0.538 0.2 0.7 0 0.113-0.137 0.119-0.45 0.119-9.419v-9.275h15.438v1.219c0 1.294 0.031 1.469 0.294 1.588 0.213 0.1 0.294 0.087 0.481-0.063l0.162-0.125v-2.8c0-3.144 0-3.15-0.45-3.663-0.137-0.156-0.4-0.363-0.575-0.456l-0.319-0.169-7.187-0.012c-6.781-0.012-7.206-0.012-7.513 0.094zM20.194 2c0.444 0.231 0.494 0.388 0.494 1.513v0.987h-15.438v-0.944c0-1.106 0.075-1.331 0.525-1.556 0.25-0.125 0.363-0.125 7.213-0.125 6.875 0 6.956 0 7.206 0.125z"></path>
<path fill="#a5058e" style="fill: var(--color2, #a5058e)" d="M12.737 2.781c-0.231 0.125-0.294 0.431-0.125 0.65l0.119 0.163 1.413 0.019c1.35 0.013 1.425 0.006 1.544-0.112 0.188-0.188 0.169-0.519-0.037-0.681-0.156-0.125-0.244-0.131-1.456-0.131-1 0.006-1.325 0.025-1.456 0.094z"></path>
<path fill="#000" style="fill: var(--color1, #000)" d="M13.856 6.675c-0.119 0.131-2.919 7.144-2.919 7.313 0 0.319 0.437 0.544 0.712 0.362 0.112-0.069 0.475-0.925 1.562-3.65 0.775-1.956 1.413-3.631 1.413-3.719 0-0.356-0.531-0.569-0.769-0.306z"></path>
<path fill="#000" style="fill: var(--color1, #000)" d="M9.594 8.063c-0.069 0.025-0.613 0.537-1.2 1.137-0.906 0.913-1.081 1.119-1.081 1.275 0 0.15 0.181 0.369 1.113 1.325 1.194 1.231 1.263 1.275 1.6 1.006 0.119-0.094 0.163-0.181 0.163-0.356 0-0.206-0.075-0.3-0.875-1.1l-0.869-0.881 0.869-0.881c0.794-0.794 0.875-0.9 0.875-1.1 0-0.325-0.306-0.544-0.594-0.425z"></path>
<path fill="#000" style="fill: var(--color1, #000)" d="M16.019 8.063c-0.169 0.069-0.269 0.25-0.269 0.475 0 0.137 0.181 0.35 0.875 1.056l0.881 0.881-0.881 0.913c-0.95 0.994-1.013 1.106-0.719 1.394 0.306 0.313 0.394 0.256 1.606-0.956 0.994-0.994 1.113-1.131 1.113-1.319 0-0.181-0.119-0.331-1.013-1.269-0.906-0.95-1.244-1.244-1.406-1.231-0.025 0-0.112 0.025-0.187 0.056z"></path>
<path fill="#a5058e" style="fill: var(--color2, #a5058e)" d="M19.819 11.681c-0.063 0.063-0.131 0.244-0.15 0.419-0.019 0.169-0.056 0.462-0.075 0.656l-0.044 0.344-0.394 0.175-0.394 0.169-0.55-0.375c-0.325-0.231-0.612-0.381-0.706-0.381-0.125 0-0.344 0.181-0.95 0.794-0.437 0.444-0.806 0.85-0.825 0.913-0.056 0.162 0.031 0.344 0.419 0.825 0.194 0.237 0.35 0.462 0.35 0.5 0 0.044-0.219 0.637-0.288 0.769 0 0.006-0.287 0.062-0.637 0.125-0.925 0.169-0.887 0.1-0.887 1.513 0 1.425-0.044 1.356 0.887 1.475 0.356 0.044 0.644 0.081 0.65 0.081 0.006 0.006 0.081 0.188 0.175 0.406l0.169 0.4-0.35 0.487c-0.363 0.513-0.444 0.687-0.381 0.881 0.019 0.069 0.387 0.463 0.806 0.881 0.95 0.937 0.931 0.931 1.681 0.356l0.531-0.406 0.369 0.162c0.2 0.088 0.387 0.188 0.406 0.225 0.025 0.031 0.075 0.319 0.119 0.631 0.106 0.706 0.219 0.856 0.656 0.856h0.281v1.063h-16.106l-0.131 0.144c-0.138 0.144-0.138 0.181-0.138 1.937 0 1.638 0.013 1.819 0.125 2.125 0.169 0.456 0.494 0.813 0.925 1.025l0.356 0.175h14.5l0.331-0.15c0.194-0.087 0.438-0.269 0.6-0.45 0.469-0.525 0.475-0.556 0.475-3.381v-2.488h0.369c0.562 0 0.625-0.075 0.731-0.906 0.050-0.375 0.094-0.681 0.106-0.687 0.344-0.156 0.756-0.288 0.825-0.263 0.044 0.019 0.275 0.175 0.513 0.344 0.231 0.169 0.487 0.331 0.562 0.35 0.225 0.069 0.463-0.106 1.2-0.875 0.856-0.906 0.85-0.9 0.294-1.613l-0.406-0.519 0.162-0.406 0.156-0.4 0.625-0.1c0.944-0.156 0.925-0.119 0.925-1.494 0-1.406 0.031-1.356-0.906-1.488l-0.669-0.1-0.312-0.787 0.381-0.569c0.313-0.456 0.381-0.606 0.35-0.731-0.050-0.206-1.5-1.675-1.7-1.725-0.187-0.044-0.325 0.031-0.844 0.444-0.231 0.187-0.444 0.337-0.475 0.337s-0.219-0.069-0.425-0.15l-0.369-0.15-0.106-0.637c-0.062-0.388-0.15-0.688-0.212-0.756-0.1-0.106-0.212-0.119-1.288-0.119-1.062 0-1.187 0.013-1.294 0.119zM21.744 12.981c0.125 0.8 0.162 0.85 0.725 1.025 0.137 0.038 0.412 0.156 0.606 0.25 0.2 0.1 0.431 0.181 0.513 0.181 0.094 0 0.337-0.15 0.637-0.381l0.481-0.381 0.756 0.756-0.356 0.519c-0.194 0.288-0.356 0.569-0.356 0.631s0.081 0.269 0.181 0.469c0.1 0.194 0.231 0.519 0.294 0.725 0.063 0.2 0.169 0.4 0.244 0.45 0.069 0.044 0.387 0.113 0.706 0.156l0.575 0.075v1.088l-0.569 0.081c-0.312 0.044-0.619 0.125-0.687 0.181s-0.206 0.331-0.3 0.619c-0.1 0.281-0.225 0.581-0.281 0.669-0.181 0.281-0.131 0.506 0.244 0.981 0.188 0.237 0.344 0.456 0.344 0.481s-0.169 0.206-0.369 0.406l-0.369 0.369-0.487-0.356c-0.269-0.194-0.55-0.35-0.631-0.35-0.075 0-0.331 0.094-0.563 0.213s-0.544 0.244-0.687 0.281c-0.394 0.106-0.5 0.281-0.55 0.944l-0.044 0.563h-1.1l-0.038-0.175c-0.019-0.094-0.062-0.35-0.106-0.575-0.037-0.219-0.094-0.45-0.119-0.506-0.031-0.056-0.269-0.175-0.519-0.263-0.256-0.094-0.613-0.237-0.794-0.319-0.394-0.181-0.481-0.163-0.987 0.25-0.194 0.162-0.394 0.306-0.438 0.325-0.088 0.031-0.762-0.594-0.762-0.706 0-0.037 0.125-0.244 0.281-0.456 0.444-0.612 0.45-0.631 0.162-1.256-0.131-0.294-0.275-0.644-0.312-0.769-0.044-0.125-0.119-0.263-0.163-0.3-0.050-0.044-0.356-0.106-0.669-0.15l-0.581-0.069-0.019-0.544-0.019-0.537 0.175-0.037c0.094-0.019 0.356-0.063 0.581-0.1 0.225-0.044 0.456-0.119 0.513-0.169s0.169-0.281 0.244-0.513c0.075-0.225 0.2-0.531 0.281-0.675 0.231-0.4 0.2-0.55-0.225-1.081l-0.375-0.469 0.381-0.381 0.381-0.388 0.469 0.338c0.256 0.181 0.525 0.35 0.587 0.369 0.075 0.025 0.263-0.031 0.481-0.144 0.194-0.1 0.544-0.244 0.781-0.319 0.231-0.081 0.444-0.194 0.481-0.25 0.044-0.087 0.187-1 0.187-1.206 0-0.031 0.25-0.050 0.556-0.050h0.55l0.075 0.481zM20.688 28.025c0 1.406-0.006 1.463-0.138 1.663-0.081 0.112-0.244 0.256-0.362 0.319-0.206 0.113-0.525 0.119-7.181 0.119-6.837 0-6.969 0-7.225-0.125-0.162-0.081-0.306-0.212-0.394-0.369-0.131-0.231-0.138-0.319-0.138-1.656v-1.413h15.438v1.463z"></path>
<path fill="#a5058e" style="fill: var(--color2, #a5058e)" d="M20.456 15.656c-0.669 0.206-1.337 0.819-1.587 1.456-0.113 0.281-0.144 0.481-0.15 0.95 0 0.544 0.019 0.631 0.2 1.013 0.762 1.612 2.8 1.956 4.050 0.687 1.294-1.312 0.694-3.581-1.088-4.1-0.406-0.119-1.062-0.125-1.425-0.006zM21.987 16.731c0.35 0.212 0.669 0.7 0.731 1.112 0.056 0.4-0.106 0.913-0.388 1.225-0.219 0.244-0.5 0.431-0.644 0.431-0.037 0-0.062-0.344-0.062-0.994v-1l-0.163-0.125c-0.225-0.175-0.375-0.163-0.594 0.050l-0.181 0.181v0.944c0 0.519-0.019 0.944-0.044 0.944-0.019 0-0.156-0.069-0.3-0.15-0.825-0.488-0.95-1.75-0.238-2.425 0.494-0.469 1.3-0.556 1.881-0.194z"></path>
<path fill="#a5058e" style="fill: var(--color2, #a5058e)" d="M10.513 28.206c-0.25 0.269-0.119 0.669 0.25 0.763 0.081 0.019 1.137 0.031 2.35 0.019l2.212-0.019 0.119-0.15c0.156-0.188 0.15-0.475-0.006-0.631-0.119-0.119-0.206-0.125-2.456-0.125h-2.337l-0.131 0.144z"></path>
</symbol>
<symbol id="icon-burger" viewBox="0 0 32 32">
<path d="M0 6.303h32v3.879h-32v-3.879z"></path>
<path d="M0 14.061h32v3.879h-32v-3.879z"></path>
<path d="M0 21.818h32v3.879h-32v-3.879z"></path>
</symbol>
<symbol id="icon-burger1" viewBox="0 0 32 32">
<path d="M0 6.303h32v3.879h-32v-3.879z"></path>
<path d="M0 14.061h32v3.879h-32v-3.879z"></path>
<path d="M0 21.818h32v3.879h-32v-3.879z"></path>
</symbol>
<symbol id="icon-close" viewBox="0 0 32 32">
<path d="M3.935 0l26.928 26.928-3.935 3.935-26.928-26.928 3.935-3.935z"></path>
<path d="M0.197 27.209l26.928-26.928 3.935 3.935-26.928 26.928-3.935-3.935z"></path>
</symbol>
<symbol id="icon-developer" viewBox="0 0 32 32">
<path fill="#000" style="fill: var(--color1, #000)" d="M2 1.081c-0.306 0.1-0.831 0.637-0.925 0.956-0.056 0.2-0.075 2.731-0.075 10.912 0 11.838-0.031 10.994 0.419 11.456 0.481 0.5 0.031 0.469 6.506 0.469h5.769l0.15-0.156c0.25-0.25 0.188-0.6-0.137-0.769-0.1-0.056-1.606-0.075-5.769-0.075h-5.631l-0.15-0.156-0.156-0.15v-16.319h2.469c2.050 0 2.506-0.019 2.65-0.094 0.3-0.15 0.35-0.506 0.1-0.75l-0.15-0.156h-5.069v-3.944l0.156-0.15 0.15-0.156h27.387l0.15 0.156 0.156 0.15v3.944h-21.006l-0.15 0.156c-0.25 0.244-0.2 0.6 0.1 0.75 0.15 0.081 1.575 0.094 10.619 0.094h10.438v10.006l0.156 0.15c0.2 0.206 0.488 0.206 0.688 0l0.156-0.15v-7.481c0-5.6-0.019-7.544-0.075-7.725-0.037-0.137-0.194-0.387-0.344-0.55-0.494-0.55 0.906-0.5-14.606-0.494-9.838 0.006-13.819 0.025-13.975 0.075z"></path>
<path fill="#a5058e" style="fill: var(--color2, #a5058e)" d="M3.725 3.756c-0.231 0.181-0.231 0.556 0 0.737 0.138 0.106 0.256 0.131 0.656 0.131 0.55 0 0.763-0.069 0.862-0.294 0.106-0.231 0.081-0.388-0.087-0.55-0.138-0.144-0.2-0.156-0.706-0.156-0.469 0-0.581 0.019-0.725 0.131z"></path>
<path fill="#a5058e" style="fill: var(--color2, #a5058e)" d="M6.662 3.756c-0.219 0.175-0.225 0.5-0.006 0.713 0.138 0.138 0.2 0.156 0.65 0.156 0.563 0 0.775-0.069 0.875-0.294 0.106-0.231 0.081-0.388-0.088-0.55-0.138-0.144-0.2-0.156-0.706-0.156-0.469 0-0.581 0.019-0.725 0.131z"></path>
<path fill="#a5058e" style="fill: var(--color2, #a5058e)" d="M9.6 3.756c-0.219 0.175-0.225 0.5-0.006 0.713 0.137 0.138 0.2 0.156 0.656 0.156 0.506 0 0.713-0.056 0.856-0.244 0.125-0.163 0.094-0.438-0.075-0.6-0.137-0.144-0.2-0.156-0.706-0.156-0.469 0-0.581 0.019-0.725 0.131z"></path>
<path fill="#000" style="fill: var(--color1, #000)" d="M4.95 11.644c-1.556 1.563-1.825 1.856-1.825 2.013s0.263 0.444 1.794 1.981c1.281 1.281 1.844 1.806 1.975 1.837 0.35 0.075 0.656-0.306 0.531-0.663-0.031-0.087-0.737-0.837-1.569-1.675l-1.513-1.512 1.55-1.55c1.362-1.363 1.55-1.575 1.556-1.75 0.006-0.269-0.219-0.512-0.475-0.512-0.175 0-0.412 0.219-2.025 1.831z"></path>
<path fill="#000" style="fill: var(--color1, #000)" d="M10.8 9.881c-0.063 0.031-0.137 0.113-0.169 0.175-0.081 0.144-1.569 6.781-1.569 6.981 0 0.181 0.188 0.381 0.406 0.438 0.188 0.044 0.444-0.1 0.531-0.306 0.144-0.325 1.563-6.869 1.525-7.019-0.075-0.287-0.456-0.431-0.725-0.269z"></path>
<path fill="#000" style="fill: var(--color1, #000)" d="M13.281 9.969c-0.175 0.175-0.194 0.338-0.069 0.581 0.050 0.094 0.756 0.831 1.563 1.637l1.475 1.469-1.563 1.563c-1.725 1.731-1.731 1.744-1.381 2.1 0.206 0.206 0.313 0.219 0.556 0.094 0.244-0.131 3.494-3.412 3.563-3.594 0.031-0.081 0.044-0.213 0.025-0.287-0.012-0.075-0.825-0.938-1.819-1.931-1.613-1.606-1.813-1.787-1.994-1.787-0.138 0-0.256 0.056-0.356 0.156z"></path>
<path fill="#a5058e" style="fill: var(--color2, #a5058e)" d="M21.281 15.156c-0.144 0.137-0.156 0.194-0.156 0.769v0.625l-0.169 0.044c-0.1 0.019-0.412 0.137-0.694 0.262l-0.525 0.225-0.419-0.419c-0.475-0.469-0.669-0.531-0.981-0.3-0.337 0.238-2.087 2.063-2.094 2.175-0.019 0.288 0.038 0.394 0.425 0.788l0.412 0.412-0.225 0.525c-0.125 0.281-0.244 0.594-0.262 0.688l-0.044 0.175h-0.625c-0.575 0-0.631 0.012-0.769 0.156l-0.156 0.15v3.137l0.156 0.15c0.138 0.144 0.194 0.156 0.769 0.156h0.625l0.044 0.169c0.019 0.1 0.137 0.413 0.262 0.694l0.225 0.525-0.419 0.419c-0.469 0.475-0.531 0.669-0.3 0.981 0.238 0.337 2.063 2.087 2.175 2.094 0.288 0.019 0.394-0.038 0.788-0.425l0.412-0.412 0.525 0.225c0.281 0.125 0.594 0.244 0.694 0.262l0.169 0.044v0.625c0 0.575 0.012 0.631 0.156 0.769l0.15 0.156h3.137l0.15-0.156c0.144-0.137 0.156-0.194 0.156-0.769v-0.625l0.175-0.044c0.094-0.019 0.406-0.137 0.688-0.262l0.525-0.225 0.412 0.412c0.394 0.388 0.5 0.444 0.788 0.425 0.113-0.006 1.938-1.756 2.175-2.094 0.231-0.313 0.169-0.506-0.3-0.981l-0.419-0.419 0.225-0.525c0.125-0.281 0.244-0.594 0.262-0.688l0.044-0.175h0.625c0.575 0 0.631-0.012 0.769-0.156l0.156-0.15v-3.137l-0.156-0.15c-0.137-0.144-0.194-0.156-0.769-0.156h-0.625l-0.044-0.175c-0.019-0.094-0.137-0.406-0.262-0.688l-0.225-0.525 0.419-0.419c0.469-0.475 0.531-0.669 0.3-0.981-0.238-0.337-2.063-2.087-2.175-2.094-0.288-0.019-0.394 0.038-0.788 0.425l-0.412 0.412-0.525-0.225c-0.281-0.125-0.594-0.244-0.688-0.262l-0.175-0.044v-0.625c0-0.575-0.012-0.631-0.156-0.769l-0.15-0.156h-3.137l-0.15 0.156zM23.875 16.525c0 0.669 0.1 0.806 0.656 0.95 0.206 0.050 0.688 0.25 1.069 0.438 0.456 0.219 0.744 0.325 0.813 0.3s0.294-0.212 0.512-0.425l0.387-0.381 0.637 0.644 0.644 0.637-0.381 0.387c-0.212 0.219-0.4 0.444-0.425 0.512s0.081 0.356 0.3 0.813c0.188 0.381 0.387 0.863 0.438 1.069 0.144 0.556 0.281 0.656 0.95 0.656h0.525v1.75h-0.525c-0.669 0-0.806 0.1-0.95 0.656-0.050 0.206-0.25 0.688-0.438 1.069-0.219 0.456-0.325 0.744-0.3 0.813s0.212 0.294 0.425 0.512l0.381 0.387-0.644 0.637-0.637 0.644-0.387-0.381c-0.219-0.212-0.444-0.4-0.512-0.425s-0.356 0.081-0.813 0.3c-0.381 0.188-0.863 0.387-1.069 0.438-0.556 0.144-0.656 0.281-0.656 0.95v0.525h-1.75v-0.525c0-0.669-0.1-0.806-0.656-0.95-0.206-0.050-0.688-0.25-1.069-0.438-0.456-0.219-0.744-0.325-0.813-0.3s-0.294 0.212-0.512 0.425l-0.387 0.381-0.637-0.644-0.644-0.637 0.381-0.387c0.212-0.219 0.4-0.444 0.425-0.512s-0.081-0.356-0.3-0.813c-0.188-0.381-0.387-0.863-0.438-1.069-0.144-0.556-0.281-0.656-0.95-0.656h-0.525v-1.75h0.525c0.669 0 0.806-0.1 0.95-0.656 0.050-0.206 0.25-0.688 0.438-1.069 0.219-0.456 0.325-0.744 0.3-0.813s-0.212-0.294-0.425-0.512l-0.381-0.387 0.644-0.637 0.637-0.644 0.387 0.381c0.219 0.212 0.444 0.4 0.512 0.425s0.356-0.081 0.813-0.3c0.381-0.188 0.863-0.387 1.069-0.438 0.556-0.144 0.656-0.281 0.656-0.95v-0.525h1.75v0.525z"></path>
<path fill="#a5058e" style="fill: var(--color2, #a5058e)" d="M22.719 19.106c-1.006 0.119-1.756 0.45-2.406 1.056-0.55 0.519-0.85 0.975-1.087 1.65-0.169 0.481-0.188 0.606-0.188 1.281 0 0.65 0.019 0.812 0.169 1.237 0.45 1.294 1.538 2.313 2.825 2.637 0.475 0.119 1.462 0.119 1.938 0 1.094-0.281 2.094-1.087 2.588-2.094 0.337-0.694 0.469-1.306 0.425-2.012-0.044-0.656-0.294-1.431-0.631-1.938-0.369-0.563-1.019-1.131-1.613-1.419-0.631-0.3-1.469-0.469-2.019-0.4zM23.569 20.156c0.475 0.062 1.15 0.425 1.556 0.844 1.256 1.281 1.119 3.369-0.294 4.45-0.613 0.462-0.981 0.575-1.831 0.575s-1.219-0.113-1.831-0.575c-1.75-1.337-1.456-4.1 0.538-5.044 0.45-0.219 1.063-0.344 1.419-0.306 0.087 0.012 0.288 0.038 0.444 0.056z"></path>
</symbol>
<symbol id="icon-facebook" viewBox="0 0 32 32">
<path d="M14.875 2.038c-5.981 0.544-10.944 4.738-12.425 10.494-0.331 1.3-0.413 1.981-0.413 3.469 0 0.981 0.031 1.538 0.112 2.063 0.794 5.1 4.162 9.25 9.006 11.106 0.563 0.212 1.956 0.6 2.456 0.675l0.262 0.044v-10.7h-3.25v-3.813h3.231l0.037-1.831c0.025-1.375 0.056-1.944 0.137-2.294 0.325-1.45 1.169-2.569 2.375-3.131 0.869-0.406 1.094-0.444 2.688-0.475 0.794-0.019 1.7-0.013 2.019 0.013l0.575 0.044v3.475l-1.356 0.025c-0.887 0.019-1.438 0.063-1.581 0.113-0.337 0.125-0.613 0.356-0.769 0.644-0.131 0.25-0.137 0.344-0.156 1.806l-0.019 1.55h3.706l-0.038 0.2c-0.019 0.113-0.119 0.869-0.225 1.675-0.1 0.806-0.206 1.575-0.225 1.7l-0.038 0.238h-3.3v10.769l0.363-0.044c0.488-0.056 1.631-0.319 2.2-0.5 2.387-0.769 4.494-2.131 6.144-3.969 1.863-2.069 2.994-4.488 3.456-7.35 0.156-0.956 0.156-3.037 0.006-4.031-0.869-5.619-4.925-10.131-10.387-11.563-0.981-0.256-1.956-0.381-3.156-0.4-0.637-0.013-1.281-0.013-1.438 0z"></path>
</symbol>
<symbol id="icon-frontend" viewBox="0 0 32 32">
<path fill="#000" style="fill: var(--color1, #000)" d="M2.594 5.088c-0.231 0.1-0.438 0.325-0.525 0.556-0.050 0.125-0.069 3.3-0.069 10.363 0 11.25-0.031 10.444 0.413 10.781l0.231 0.181h26.725l0.169-0.131c0.094-0.069 0.231-0.206 0.3-0.3l0.131-0.169v-20.725l-0.181-0.231c-0.337-0.444 0.788-0.412-13.8-0.412-10.869 0.006-13.238 0.019-13.394 0.088zM29 7.5v1.5h-26v-3h26v1.5zM29 18v8h-26v-16h26v8z"></path>
<path fill="#a5058e" style="fill: var(--color2, #a5058e)" d="M4.156 7.156c-0.1 0.094-0.156 0.225-0.156 0.344s0.056 0.25 0.156 0.344l0.15 0.156h5.888l0.15-0.156c0.206-0.2 0.206-0.487 0-0.688l-0.15-0.156h-5.888l-0.15 0.156z"></path>
<path fill="#a5058e" style="fill: var(--color2, #a5058e)" d="M27.156 7.156c-0.1 0.094-0.156 0.225-0.156 0.344s0.056 0.25 0.156 0.344c0.094 0.1 0.225 0.156 0.344 0.156s0.25-0.056 0.344-0.156c0.1-0.094 0.156-0.225 0.156-0.344s-0.056-0.25-0.156-0.344c-0.094-0.1-0.225-0.156-0.344-0.156s-0.25 0.056-0.344 0.156z"></path>
<path fill="#000" style="fill: var(--color1, #000)" d="M4.656 12.156l-0.156 0.15v10.388l0.156 0.15 0.15 0.156h11.388l0.15-0.156 0.156-0.15v-10.388l-0.156-0.15-0.15-0.156h-11.388l-0.15 0.156zM15.5 16.781v3.781l-1.169-0.781c-0.744-0.494-1.231-0.781-1.331-0.781-0.088 0.006-0.662 0.313-1.281 0.688l-1.125 0.681-1.194-1.188c-1.031-1.025-1.213-1.181-1.381-1.181-0.162 0-0.4 0.169-1.319 0.938-0.619 0.512-1.144 0.938-1.162 0.938s-0.037-1.55-0.037-3.438v-3.438h10v3.781zM9.375 20.594l1.406 1.406h-5.281l0.006-0.394v-0.387l1.225-1.019c0.675-0.556 1.231-1.012 1.231-1.012 0.006 0 0.638 0.631 1.413 1.406zM14.262 20.944c0.869 0.581 1.238 0.863 1.238 0.938 0 0.113-0.088 0.119-1.644 0.119h-1.644l-0.45-0.456-0.45-0.45 0.8-0.481c0.438-0.269 0.819-0.481 0.856-0.488 0.031 0 0.613 0.369 1.294 0.819z"></path>
<path fill="#a5058e" style="fill: var(--color2, #a5058e)" d="M11 14.581c-0.306 0.1-0.831 0.637-0.925 0.956-0.175 0.587-0.050 1.056 0.394 1.494 0.631 0.637 1.431 0.637 2.063 0 0.637-0.631 0.637-1.431 0-2.063-0.438-0.444-0.95-0.569-1.531-0.387zM11.844 15.656c0.313 0.306 0.094 0.844-0.344 0.844-0.119 0-0.25-0.056-0.344-0.156-0.313-0.306-0.094-0.844 0.344-0.844 0.119 0 0.25 0.056 0.344 0.156z"></path>
<path fill="#a5058e" style="fill: var(--color2, #a5058e)" d="M18.656 12.156l-0.156 0.15v4.888l0.156 0.15 0.15 0.156h3.388l0.15-0.156 0.156-0.15v-4.888l-0.156-0.15-0.15-0.156h-3.388l-0.15 0.156zM21.5 14.75v1.75h-2v-3.5h2v1.75z"></path>
<path fill="#000" style="fill: var(--color1, #000)" d="M23.656 12.656c-0.1 0.094-0.156 0.225-0.156 0.344s0.056 0.25 0.156 0.344c0.144 0.15 0.194 0.156 0.844 0.156s0.7-0.006 0.844-0.156c0.1-0.094 0.156-0.225 0.156-0.344s-0.056-0.25-0.156-0.344c-0.144-0.15-0.194-0.156-0.844-0.156s-0.7 0.006-0.844 0.156z"></path>
<path fill="#000" style="fill: var(--color1, #000)" d="M23.656 14.656c-0.1 0.094-0.156 0.225-0.156 0.344s0.056 0.25 0.156 0.344l0.15 0.156h3.388l0.15-0.156c0.1-0.094 0.156-0.225 0.156-0.344s-0.056-0.25-0.156-0.344l-0.15-0.156h-3.388l-0.15 0.156z"></path>
<path fill="#000" style="fill: var(--color1, #000)" d="M23.656 16.656c-0.1 0.094-0.156 0.225-0.156 0.344s0.056 0.25 0.156 0.344l0.15 0.156h3.388l0.15-0.156c0.1-0.094 0.156-0.225 0.156-0.344s-0.056-0.25-0.156-0.344l-0.15-0.156h-3.388l-0.15 0.156z"></path>
<path fill="#a5058e" style="fill: var(--color2, #a5058e)" d="M18.656 18.656l-0.156 0.15v3.888l0.156 0.15 0.15 0.156h8.388l0.15-0.156 0.156-0.15v-3.888l-0.156-0.15-0.15-0.156h-8.388l-0.15 0.156zM26.5 20.75v1.25h-7v-2.5h7v1.25z"></path>
</symbol>
<symbol id="icon-linkedin" viewBox="0 0 32 32">
<path d="M14.506 0.063c-5.425 0.525-10.275 3.813-12.731 8.637-0.869 1.706-1.381 3.35-1.663 5.331-0.125 0.875-0.106 3.15 0.038 4.125 0.244 1.738 0.756 3.381 1.544 4.962 1.556 3.137 4.044 5.625 7.187 7.188 5.094 2.538 11.119 2.188 15.869-0.919 1.856-1.212 3.619-3.012 4.819-4.925 0.462-0.725 1.15-2.137 1.462-2.988 0.319-0.863 0.688-2.35 0.819-3.319 0.144-0.981 0.163-3.256 0.038-4.125-0.369-2.594-1.194-4.806-2.563-6.869-0.575-0.875-1.156-1.588-1.969-2.406-2.494-2.519-5.594-4.081-9.137-4.606-0.762-0.113-2.912-0.163-3.713-0.087zM10.856 8.094c1.019 0.3 1.719 1.412 1.531 2.419-0.144 0.756-0.563 1.325-1.238 1.644-0.313 0.156-0.444 0.181-0.9 0.188-0.45 0-0.588-0.025-0.887-0.169-0.469-0.219-0.863-0.594-1.088-1.031-0.162-0.325-0.181-0.419-0.181-0.956 0.006-0.7 0.119-1.019 0.544-1.475 0.563-0.606 1.431-0.85 2.219-0.619zM21.481 13.338c0.825 0.269 1.481 0.844 1.887 1.644 0.194 0.394 0.425 1.231 0.5 1.862 0.044 0.344 0.069 1.8 0.069 3.706v3.144l-0.156 0.15-0.15 0.156h-2.825l-0.15-0.156-0.156-0.15v-2.769c0-1.525-0.031-2.962-0.063-3.2-0.163-1.119-0.712-1.656-1.694-1.663-0.994 0-1.587 0.569-1.831 1.769-0.081 0.387-0.1 0.956-0.1 3.169v2.694l-0.156 0.15-0.15 0.156h-1.363c-1.425-0.006-1.488-0.012-1.631-0.294-0.056-0.1-0.075-1.444-0.075-5.106v-4.969l0.3-0.35 1.206-0.019c1.819-0.031 1.869-0.012 1.869 0.806v0.506l0.425-0.425c0.75-0.769 1.531-1.037 2.919-1 0.669 0.019 0.906 0.050 1.325 0.188zM11.556 13.319c0.394 0.137 0.381-0.075 0.381 5.369v4.95l-0.363 0.363h-1.294c-1.338 0-1.588-0.044-1.681-0.281-0.019-0.056-0.037-2.35-0.037-5.087 0-4.912 0-4.994 0.125-5.15 0.069-0.088 0.188-0.175 0.269-0.188 0.313-0.063 2.406-0.037 2.6 0.025z"></path>
</symbol>
<symbol id="icon-telegram" viewBox="0 0 32 32">
<path d="M14.469 0.069c-4.006 0.412-7.569 2.206-10.306 5.181-3.862 4.194-5.156 10.275-3.35 15.75 0.819 2.481 2.112 4.556 4.006 6.419 2.513 2.469 5.563 3.95 9.213 4.469 0.744 0.106 3.2 0.1 3.969-0.006 3.663-0.506 6.819-2.069 9.356-4.637 2.525-2.556 4.006-5.587 4.531-9.275 0.106-0.738 0.106-3.2 0-3.938-0.3-2.106-0.913-4.006-1.844-5.688-0.731-1.331-1.581-2.469-2.688-3.588-2.488-2.519-5.581-4.081-9.137-4.606-0.769-0.113-2.988-0.163-3.75-0.081zM23.469 9.713c0.275 0.119 0.406 0.381 0.406 0.819 0 0.4-2.644 12.95-2.781 13.225-0.2 0.387-0.631 0.531-1.069 0.369-0.15-0.056-1.594-1.1-3.706-2.669l-0.525-0.387-1.131 1.081c-0.831 0.788-1.194 1.1-1.344 1.131-0.113 0.025-0.219 0.031-0.231 0.012-0.019-0.019 0.025-0.925 0.1-2.025l0.131-1.988 0.444-0.406c0.238-0.225 1.931-1.756 3.756-3.406 1.831-1.656 3.325-3.044 3.325-3.094 0-0.069-0.069-0.094-0.219-0.088-0.181 0.006-1.106 0.563-4.856 2.919-2.544 1.606-4.662 2.919-4.7 2.919-0.169 0-4.112-1.269-4.3-1.381-0.4-0.25-0.313-0.619 0.206-0.912 0.138-0.075 1.131-0.481 2.213-0.894 1.081-0.419 3.125-1.206 4.531-1.75 1.412-0.544 3.925-1.512 5.594-2.156 3.656-1.412 3.619-1.4 3.8-1.406 0.075 0 0.238 0.037 0.356 0.088z"></path>
</symbol>
<symbol id="icon-whatsapp" viewBox="0 0 32 32">
<path d="M14.844 0.037c-2.412 0.231-4.231 0.756-6.206 1.775-3.013 1.563-5.444 4.044-6.95 7.094-0.581 1.169-0.85 1.887-1.156 3.037-0.375 1.45-0.487 2.331-0.494 3.931 0 0.8 0.031 1.663 0.075 2 0.344 2.563 1.144 4.769 2.487 6.831l0.45 0.694-0.994 2.931c-0.55 1.619-0.988 2.944-0.975 2.956s1.375-0.413 3.037-0.944c1.662-0.531 3.044-0.969 3.075-0.969 0.025 0 0.281 0.144 0.569 0.325 0.288 0.175 0.888 0.5 1.331 0.712 4.044 1.931 8.662 2.1 12.8 0.456 4.688-1.856 8.288-5.925 9.575-10.813 0.394-1.5 0.488-2.319 0.488-4.056s-0.094-2.556-0.488-4.056c-1.512-5.731-6.106-10.188-11.906-11.544-0.975-0.225-1.988-0.344-3.219-0.362-0.688-0.013-1.363-0.013-1.5 0zM11.031 7.45c0.106 0.056 0.25 0.206 0.325 0.344 0.181 0.331 1.706 3.987 1.75 4.213 0.056 0.281-0.225 0.762-0.844 1.463-0.65 0.731-0.787 0.963-0.731 1.225 0.106 0.475 1.55 2.394 2.444 3.238 1.381 1.306 3.469 2.55 4.4 2.619 0.481 0.031 0.65-0.1 1.387-1.075 0.331-0.444 0.681-0.887 0.788-0.988 0.238-0.244 0.594-0.294 1-0.144 0.512 0.194 3.656 1.725 3.881 1.894l0.212 0.156-0.038 0.663c-0.087 1.7-0.688 2.581-2.262 3.35-1.5 0.731-2.675 0.712-4.969-0.081-3.088-1.069-4.719-2.087-6.938-4.319-1.113-1.113-1.9-2.056-2.8-3.35-1.487-2.125-2.056-3.769-1.888-5.438 0.138-1.338 0.606-2.325 1.55-3.269 0.456-0.456 1.050-0.644 1.95-0.612 0.381 0.013 0.662 0.050 0.781 0.112z"></path>
</symbol>
</defs>
</svg>
